<?xml version="1.0" encoding="iso-8859-1"?>
<!-- Generator: Adobe Illustrator 19.0.0, SVG Export Plug-In . SVG Version: 6.00 Build 0)  -->
<svg version="1.1" id="Layer_1" xmlns="http://www.w3.org/2000/svg" xmlns:xlink="http://www.w3.org/1999/xlink" x="0px" y="0px"
	 viewBox="0 0 512 512" style="enable-background:new 0 0 512 512;" xml:space="preserve">
<g>
	<g>
		<path d="M498.219,45.781L455.552,3.115C453.547,1.131,450.837,0,448,0H42.667c-2.837,0-5.547,1.131-7.552,3.115L13.781,24.448
			c-1.984,2.005-3.115,4.715-3.115,7.552v448c0,2.837,1.131,5.547,3.115,7.552l21.333,21.333c2.005,1.984,4.715,3.115,7.552,3.115
			H64c5.888,0,10.667-4.779,10.667-10.667V224c0-5.888,4.779-10.667,10.667-10.667h341.333c5.888,0,10.667,4.779,10.667,10.667
			v277.333c0,5.888,4.779,10.667,10.667,10.667h21.333c2.837,0,5.547-1.131,7.552-3.115l21.333-21.333
			c1.984-2.005,3.115-4.715,3.115-7.552V53.333C501.333,50.496,500.203,47.787,498.219,45.781z M480,475.584l-15.083,15.083h-6.251
			V224c0-17.643-14.357-32-32-32H85.333c-17.643,0-32,14.357-32,32v266.667h-6.251L32,475.584V36.416l15.083-15.083h396.501
			L480,57.749V475.584z"/>
	</g>
</g>
<g>
	<g>
		<path d="M469.76,448h-0.213c-5.888,0-10.56,4.779-10.56,10.667s4.885,10.667,10.773,10.667c5.888,0,10.667-4.779,10.667-10.667
			S475.648,448,469.76,448z"/>
	</g>
</g>
<g>
	<g>
		<path d="M448,490.667H64c-5.888,0-10.667,4.779-10.667,10.667C53.333,507.221,58.112,512,64,512h384
			c5.888,0,10.667-4.779,10.667-10.667C458.667,495.445,453.888,490.667,448,490.667z"/>
	</g>
</g>
<g>
	<g>
		<path d="M384,0H149.333c-5.888,0-10.667,4.779-10.667,10.667v128c0,17.643,14.357,32,32,32h192c17.643,0,32-14.357,32-32v-128
			C394.667,4.779,389.888,0,384,0z M373.333,138.667c0,5.888-4.779,10.667-10.667,10.667h-192c-5.888,0-10.667-4.779-10.667-10.667
			V21.333h213.333V138.667z"/>
	</g>
</g>
<g>
	<g>
		<path d="M341.333,0H256c-5.888,0-10.667,4.779-10.667,10.667V160c0,5.888,4.779,10.667,10.667,10.667h85.333
			c5.888,0,10.667-4.779,10.667-10.667V10.667C352,4.779,347.221,0,341.333,0z M330.667,149.333h-64v-128h64V149.333z"/>
	</g>
</g>
<g>
	<g>
		<path d="M366.72,314.517c-0.96-2.795-3.029-5.077-5.739-6.293c-2.709-1.216-5.803-1.237-8.533-0.085
			c-5.056,2.197-10.667,0.405-13.312-4.139c-2.624-4.565-1.323-10.283,3.093-13.611c2.389-1.792,3.904-4.48,4.203-7.445
			c0.299-2.944-0.64-5.909-2.603-8.128c-17.408-19.776-39.829-32.875-64.832-37.845c-2.944-0.64-6.016,0.085-8.427,1.877
			c-2.432,1.771-3.968,4.501-4.288,7.488C265.728,251.861,261.312,256,256,256c-5.312,0-9.728-4.139-10.261-9.643
			c-0.32-2.987-1.877-5.717-4.288-7.488c-2.411-1.792-5.504-2.517-8.427-1.877c-25.003,4.949-47.424,18.048-64.832,37.845
			c-1.963,2.24-2.901,5.184-2.603,8.128c0.299,2.965,1.835,5.675,4.203,7.445c4.437,3.328,5.739,9.045,3.093,13.611
			c-2.645,4.565-8.256,6.315-13.312,4.139c-2.752-1.173-5.845-1.152-8.533,0.085c-2.709,1.195-4.779,3.477-5.739,6.293
			c-4.459,13.141-6.635,25.408-6.635,37.461s2.176,24.32,6.635,37.461c0.96,2.795,3.029,5.077,5.739,6.293
			c2.709,1.216,5.803,1.237,8.533,0.085c5.056-2.133,10.688-0.405,13.312,4.139c2.624,4.565,1.323,10.283-3.093,13.611
			c-2.389,1.792-3.904,4.48-4.203,7.445c-0.299,2.944,0.64,5.909,2.603,8.128C185.6,448.96,208,462.059,233.003,467.029
			c2.923,0.597,5.995-0.107,8.427-1.877c2.432-1.771,3.968-4.501,4.288-7.488C246.272,452.139,250.688,448,256,448
			c5.312,0,9.728,4.139,10.283,9.643c0.32,2.987,1.877,5.717,4.288,7.488c1.856,1.365,4.075,2.091,6.336,2.091
			c0.704,0,1.387-0.064,2.069-0.213c25.003-4.949,47.424-18.048,64.832-37.845c1.963-2.24,2.901-5.184,2.603-8.128
			c-0.299-2.965-1.835-5.675-4.203-7.445c-4.437-3.328-5.739-9.045-3.093-13.611s8.256-6.315,13.312-4.139
			c2.731,1.152,5.824,1.109,8.533-0.085s4.779-3.477,5.739-6.293c4.459-13.141,6.635-25.408,6.635-37.461
			S371.157,327.68,366.72,314.517z M349.163,373.675c-11.989-0.533-22.549,5.397-28.501,15.68
			c-5.931,10.261-5.355,22.741,0.661,32.469c-10.816,10.24-23.488,17.685-37.291,21.952c-5.333-10.261-15.936-17.109-28.032-17.109
			c-12.096,0-22.699,6.848-28.032,17.088c-13.824-4.245-26.475-11.712-37.291-21.952c6.016-9.707,6.592-22.187,0.661-32.469
			c-5.931-10.304-16.747-16.192-28.501-15.68C160.939,366.123,160,358.976,160,352c0-6.976,0.939-14.144,2.837-21.675
			c11.733,0.235,22.549-5.397,28.501-15.68c5.931-10.261,5.355-22.741-0.661-32.469c10.816-10.24,23.488-17.685,37.291-21.952
			c5.333,10.261,15.936,17.109,28.032,17.109c12.096,0,22.699-6.848,28.032-17.067c13.824,4.245,26.475,11.712,37.291,21.952
			c-6.016,9.707-6.592,22.187-0.661,32.469c5.931,10.283,16.512,15.936,28.501,15.68c1.899,7.531,2.837,14.677,2.837,21.653
			C352,358.997,351.061,366.144,349.163,373.675z"/>
	</g>
</g>
<g>
	<g>
		<path d="M256,298.667c-29.397,0-53.333,23.936-53.333,53.333s23.936,53.333,53.333,53.333s53.333-23.936,53.333-53.333
			S285.397,298.667,256,298.667z M256,384c-17.643,0-32-14.357-32-32c0-17.643,14.357-32,32-32s32,14.357,32,32
			C288,369.643,273.643,384,256,384z"/>
	</g>
</g>
<g>
</g>
<g>
</g>
<g>
</g>
<g>
</g>
<g>
</g>
<g>
</g>
<g>
</g>
<g>
</g>
<g>
</g>
<g>
</g>
<g>
</g>
<g>
</g>
<g>
</g>
<g>
</g>
<g>
</g>
</svg>
